<svg xmlns="http://www.w3.org/2000/svg" xmlns:xlink="http://www.w3.org/1999/xlink" viewBox="0 0 972.7 429.2"><defs><path id="a" d="M0 0h575.9v429.2H0z"/></defs><clipPath id="b"><use xlink:href="#a" overflow="visible"/></clipPath><path d="M358.4 399.3c-21.1 8.2-42.6 14.6-64 19.1l-6.8 1.4-1.9.4-15.9 2.7-1.5.2c-42.2 6.1-83.7 5.1-120.9-3.5-63.7-14.6-110-50-128.7-98.3C0 273 10.4 215.7 47.7 162 85 108.3 146 62.6 217.4 34.9 288.8 7.3 364.7 0 428.5 14.6c63.7 14.6 110 50 128.7 98.3 18.7 48.3 8.3 105.6-29 159.3-37.3 53.8-98.4 99.5-169.8 127.1" clip-path="url(#b)" fill-rule="evenodd" clip-rule="evenodd" fill="#0071b8"/><defs><path id="c" d="M79.7 177.6h377.9v135.5H79.7z"/></defs><clipPath id="d"><use xlink:href="#c" overflow="visible"/></clipPath><path d="M216.1 245.4v-58.2c0-2.4 1-4.8 2.7-6.5 1.7-1.7 4.1-2.7 6.5-2.7 2.4 0 4.8 1 6.5 2.7 1.7 1.7 2.7 4.1 2.7 6.5v49h41.8c2.4 0 4.8 1 6.5 2.7 1.7 1.7 2.7 4.1 2.7 6.5 0 2.4-1 4.8-2.7 6.5-1.7 1.7-4.1 2.7-6.5 2.7h-41.8v49c0 2.4-1 4.8-2.7 6.5-1.7 1.7-4.1 2.7-6.5 2.7-2.4 0-4.8-1-6.5-2.7-1.7-1.7-2.7-4.1-2.7-6.5v-58.2zm97.8-67.3c2.4 0 4.8 1 6.5 2.7 1.7 1.7 2.7 4.1 2.7 6.5v116.3c0 2.4-1 4.8-2.7 6.5-1.7 1.7-4.1 2.7-6.5 2.7-2.4 0-4.8-1-6.5-2.7-1.7-1.7-2.7-4.1-2.7-6.5V187.3c0-2.4 1-4.8 2.7-6.5 1.8-1.7 4.1-2.7 6.5-2.7m143.8 91.6c0 12.8-5.4 23.2-16.3 31.2-9.6 7.2-22 11.3-37.3 12.2h-.7c-17-.5-30.7-4.6-41.3-12.4-10.9-8.1-16.3-18.5-16.3-31.2l-.1-55v-27.2c0-2.6 1-5 2.8-6.8 1.8-1.8 4.3-2.8 6.8-2.8 2.6 0 5 1 6.8 2.8 1.8 1.8 2.8 4.3 2.8 6.8v77.3c0 9.7 2.3 17.1 9.7 22.2 6.8 4.7 16.5 7.3 29.1 7.6 10.8-.7 19.2-3.2 25.2-7.5 7.3-5.1 9.8-12.5 9.8-22.2v-77.5c0-2.5 1-4.9 2.8-6.7 1.8-1.8 4.2-2.8 6.7-2.8s4.9 1 6.7 2.8c1.8 1.8 2.8 4.2 2.8 6.7v82.5zm-307.9 43.4c-18.6 0-36.4-7.1-49.5-19.8-13.1-12.7-20.5-29.9-20.5-47.8s7.4-35.1 20.5-47.8c13.1-12.7 31-19.8 49.5-19.8 15.9 0 31.3 5.3 43.7 14.8.2.2.5.4.7.6 1.7 1.7 2.7 4.1 2.7 6.5v.2c0 2.4-1 4.8-2.7 6.5-1.7 1.7-4 2.7-6.5 2.6-2.4-.1-4.1-.9-6.6-2.6l-1.1-.8c-8.8-6.3-19.2-9.7-30.2-9.7-13.6 0-26.7 5.2-36.3 14.5-9.6 9.3-15 21.9-15 35 0 13.1 5.4 25.7 15 35s22.7 14.5 36.3 14.5c10.8 0 21.3-3.3 30-9.3 2.3-1.4 4.5-2.7 6.5-2.7 2.4.1 4.8 1 6.5 2.7 1.7 1.7 2.7 4.1 2.7 6.5v.2c0 2.6-.7 4.7-2.2 6l-3.2 2.4c-11.7 7.9-25.8 12.3-40.3 12.3" clip-path="url(#d)" fill-rule="evenodd" clip-rule="evenodd" fill="#fff"/><defs><path id="e" d="M329.9 42.6h642.8v130.2H329.9z"/></defs><clipPath id="f"><use xlink:href="#e" overflow="visible"/></clipPath><path d="M854.9 135.3l109.3.1c4.7 0 6.5.1 6.5.1s.6 1.9-1.1 3.4c-.6.6-1.6 1.6-2.8 2.3-10.6 6.3-41.8 16.8-69.6 24.2-3.7 1-23 7.5-28 4.4-13.6-8.3-14.3-34.5-14.3-34.5" clip-path="url(#f)" fill-rule="evenodd" clip-rule="evenodd" fill="#172982"/><path d="M968.8 136.7H462.7c-68.1 0-132.8-36.7-132.8-93.8l490.6.2s50-.6 84.5 15c54.1 23.1 66.1 74.9 66.1 74.9s.5 2.5 0 4c-.3.7-.5 1.2-1.6 2.1-.4.3-2.6 1.9-2.6 1.9.3-.2 5.8-4.3 1.9-4.3" clip-path="url(#f)" fill-rule="evenodd" clip-rule="evenodd" fill="#eb7405"/><path d="M753.7 204.1c-4.9 0-9-1.8-12.2-5.1-3.1-3.2-4.7-7.2-4.7-12 0-4.4 1.7-8.5 5-11.6 3.2-3.1 7.3-4.8 12-4.8 7.7 0 14.2 4.9 16.4 12.9h-8.7c-1.8-3.2-4.4-4.8-7.6-4.8-4.9 0-8.7 3.7-8.7 8.4 0 5.1 4.1 9.1 8.6 9.1 3.1 0 5.8-1.6 7.6-4.6h8.7c-2.2 7.7-8.5 12.5-16.4 12.5zm20.2-.7v-32.2h17.8v7.1h-9.8v5.2h9.8v7.2h-9.8v5.6h9.8v7.1h-17.8zm23 0v-32.2h7.3l12.1 17.9v-17.9h8v32.2h-7.1l-12.3-17.9v17.9h-8zm36.3 0v-24.7h-6.1v-7.5h20.4v7.5h-6.2v24.7h-8.1zm16.7 0v-32.2h10.9c3.5 0 6.1.2 8.3 1.8 2.9 2 4.4 5 4.4 9 0 5.2-2.8 9.1-7.4 10.4l8 11.1h-9.9l-6.3-10.4v10.4h-8zm9.6-17.3c4 0 5.9-1 5.9-3.9 0-2.7-1.7-3.8-5.3-3.8h-2.2v7.7h1.6zm18.3 17.3v-32.2h17.8v7.1h-9.8v5.2h9.8v7.2h-9.8v5.6h9.8v7.1h-17.8zm-224.2 42.1h-8.2v12.3h-8v-32.2h8v12.2h8.2v-12.2h8.1v32.2h-8.1v-12.3zm16.9-15.8c3.2-3.1 7.3-4.7 12-4.7 4.4 0 8.6 1.7 11.7 4.8 3.3 3.2 5.1 7.3 5.1 11.7 0 4.6-1.7 8.7-4.8 11.9-3.2 3.3-7.5 5-12.1 5-4.9 0-9-1.7-12.3-5.1-3.1-3.2-4.7-7.2-4.7-12 .1-4.4 1.9-8.4 5.1-11.6zm12 20.7c4.7 0 8.6-3.7 8.6-9 0-4.7-3.8-8.5-8.5-8.5-4.9 0-8.7 3.8-8.7 8.5-.1 5.2 4 9 8.6 9zm27-3.2v.4c0 2.6 1 3.9 3 3.9 1.9 0 3.1-1 3.1-2.7 0-2.9-2.3-3.2-5.9-4.8-4.9-2.2-7.4-5.3-7.4-9.2 0-5.8 4.5-9.9 11.2-9.9 5.9 0 10 3.7 10 9.5v.5h-7.4c0-2-1.1-3.1-3-3.1-1.5 0-2.5 1-2.5 2.4 0 2.4 2.4 2.9 6.6 5 4.5 2.3 6.7 5.1 6.7 9 0 5.6-4.7 10.2-10.8 10.2-7.3 0-11.2-3.6-11.2-10.5v-.7h7.6zm18.5 10.6v-32.2h10.9c3.5 0 6.1.2 8.3 1.8 2.9 2 4.4 5 4.4 9.1 0 4.2-1.9 7.6-5.2 9.6-2.1 1.2-4.7 1.5-8.1 1.5H736V258h-8zm9.6-17.3c4 0 5.9-1 5.9-3.9 0-2.7-1.7-3.8-5.3-3.8h-2.1v7.7h1.5zm18.2 17.3v-32.2h8v32.2h-8zm16.9 0v-24.7h-6.1v-7.5H787v7.5h-6.2v24.7h-8.1zm20.1 0H784l12.6-32.2h6.6l12.6 32.2h-8.9l-1.6-4.7h-10.9l-1.6 4.7zm7.1-21.6l-3.3 10.3h6.5l-3.2-10.3zm16.4 21.6v-32.2h8v25.1h9.4v7.1h-17.4zm20.3 0v-32.2h8v32.2h-8zm13.2 0v-32.2h17.8v7.1h-9.8v5.2h9.8v7.2h-9.8v5.6h9.8v7.1h-17.8zm23 0v-32.2h10.9c3.5 0 6.1.2 8.3 1.8 2.9 2 4.4 5 4.4 9 0 5.2-2.8 9.1-7.4 10.4l8 11.1h-9.9l-6.3-10.4v10.4h-8zm9.6-17.3c4 0 5.9-1 5.9-3.9 0-2.7-1.7-3.8-5.3-3.8h-2.2v7.7h1.6zM551.7 280v19.8c0 3.6 1.4 5.5 4.6 5.5 3.3 0 4.9-1.8 4.9-5.5V280h9.5v20.2c0 7.9-5.8 12.6-14.5 12.6-8.8 0-14.1-4.5-14.1-12.6V280h9.6zm25.4 32.2V280h8.6l14.3 17.9V280h9.5v32.2h-8.4l-14.5-17.9v17.9h-9.5zm38.6 0V280h9.5v32.2h-9.5zm23.4 0l-12-32.2h9.9l7.3 21.6 7.3-21.6h9.9l-12.1 32.2h-10.3zm24.3 0V280h21.2v7.1H673v5.2h11.6v7.2H673v5.6h11.6v7.1h-21.2zm27.3 0V280h12.9c4.1 0 7.2.2 9.9 1.8 3.5 2 5.3 5 5.3 9 0 5.2-3.3 9.1-8.8 10.4l9.5 11.1h-11.8l-7.5-10.4v10.4h-9.5zm11.4-17.3c4.7 0 7-1 7-3.9 0-2.7-2-3.8-6.3-3.8h-2.6v7.7h1.9zm29.2 6.7v.4c0 2.6 1.2 3.9 3.6 3.9 2.3 0 3.7-1 3.7-2.7 0-2.9-2.7-3.2-7-4.8-5.8-2.2-8.8-5.3-8.8-9.2 0-5.8 5.4-9.9 13.3-9.9 7 0 11.8 3.7 11.8 9.5v.5h-8.8c0-2-1.3-3.1-3.6-3.1-1.8 0-3 1-3 2.4 0 2.4 2.9 2.9 7.8 5 5.3 2.3 7.9 5.1 7.9 9 0 5.6-5.6 10.2-12.8 10.2-8.7 0-13.3-3.6-13.3-10.5v-.7h9.2zm21.9 10.6V280h9.5v32.2h-9.5zm20.1 0v-24.7h-7.2V280h24.2v7.5h-7.4v24.7h-9.6zm23.8 0h-10.4l15-32.2h7.8l15 32.2H814l-1.9-4.7h-12.9l-2.1 4.7zm8.4-21.6l-3.9 10.3h7.7l-3.8-10.3zm19.6 21.6V280h9.5v32.2h-9.5zm15.8 0V280h12.9c4.1 0 7.2.2 9.9 1.8 3.5 2 5.3 5 5.3 9 0 5.2-3.3 9.1-8.8 10.4l9.5 11.1h-11.8l-7.5-10.4v10.4h-9.5zm11.4-17.3c4.7 0 7-1 7-3.9 0-2.7-2-3.8-6.3-3.8h-2.6v7.7h1.9zm21.7 17.3V280h21.2v7.1h-11.6v5.2h11.6v7.2h-11.6v5.6h11.6v7.1H874z" fill="#0071b8"/><path d="M456.2 112.7v-43h15.5l8.9 26.3 8.9-26.3H505v43h-10.8V84.3l-9.6 28.4h-8L467 84.3v28.4h-10.8zm65.1-37.5c4.6-4.2 10.3-6.3 16.9-6.3 6.2 0 12.1 2.2 16.6 6.3 4.7 4.3 7.2 9.8 7.2 15.7 0 6.2-2.3 11.7-6.7 15.8-4.5 4.4-10.6 6.7-17.1 6.7-6.9 0-12.7-2.3-17.3-6.8-4.4-4.3-6.6-9.6-6.6-16 0-5.8 2.4-11.2 7-15.4zm16.9 27.6c6.7 0 12.1-5 12.1-12 0-6.3-5.4-11.3-11.9-11.3-6.9 0-12.3 5-12.3 11.3-.2 6.8 5.7 12 12.1 12zm33.2 9.9v-43h10.2l17 23.9V69.7H610v43h-10l-17.3-23.9v23.9h-11.3zm55.2 0v-33H618v-10h28.8v10H638v33h-11.4zm27.5 0v-43h15.4c4.9 0 8.6.3 11.7 2.4 4.1 2.7 6.3 6.7 6.3 12.1 0 5.6-2.7 10.2-7.4 12.8-2.9 1.6-6.6 1.9-11.4 1.9h-3.3v13.8h-11.3zm13.5-23.2c5.6 0 8.4-1.3 8.4-5.2 0-3.6-2.4-5-7.4-5h-3v10.2h2zm29.5 23.2v-43h25.2v9.5h-13.8v7h13.8v9.5h-13.8v7.5h13.8v9.5h-25.2zm36.3 0v-43h11.3v33.5h13.2v9.5h-24.5zm32.3 0v-43H777v33.5h13.2v9.5h-24.5zm32.5 0v-43h11.4v43h-11.4zm22.6 0v-43H846v9.5h-13.8v7H846v9.5h-13.8v7.5H846v9.5h-25.2zm36.2 0v-43h15.4c4.9 0 8.6.3 11.7 2.4 4.1 2.7 6.3 6.7 6.3 12 0 7-3.9 12.1-10.5 13.8l11.4 14.7h-14l-8.9-13.8v13.8H857zm13.6-23.2c5.6 0 8.4-1.3 8.4-5.2 0-3.6-2.4-5-7.4-5h-3.1v10.2h2.1z" fill="#fff"/><path fill="none" stroke="#0071b8" stroke-width="2.29" stroke-linecap="round" stroke-linejoin="round" d="M918.1 138.9v173.2"/></svg>