<svg id="svg" version="1.1" xmlns="http://www.w3.org/2000/svg" xmlns:xlink="http://www.w3.org/1999/xlink" width="400" height="395.5905511811024" viewBox="0, 0, 400,395.5905511811024"><g id="svgg"><path id="path0" d="M324.827 0.434 C 324.827 0.673,324.026 2.516,323.046 4.529 C 322.067 6.542,321.266 8.305,321.266 8.446 C 321.266 8.587,320.659 9.993,319.916 11.572 C 316.011 19.873,314.936 22.241,314.936 22.535 C 314.936 22.877,313.971 25.053,310.104 33.432 C 308.799 36.261,307.581 38.932,307.399 39.367 C 305.768 43.255,302.896 49.732,302.662 50.049 C 302.502 50.267,301.809 51.780,301.123 53.412 C 300.438 55.045,299.628 56.914,299.325 57.567 C 299.022 58.220,298.112 60.267,297.302 62.117 C 296.492 63.966,295.588 65.831,295.293 66.260 C 294.999 66.689,294.758 67.259,294.758 67.525 C 294.758 67.791,293.535 70.645,292.040 73.866 C 290.545 77.087,288.389 81.860,287.250 84.471 C 286.110 87.082,284.941 89.753,284.651 90.406 C 280.008 100.858,278.536 104.292,278.536 104.675 C 278.536 104.928,278.215 105.560,277.822 106.079 C 277.430 106.598,276.609 108.180,275.999 109.594 C 275.389 111.009,274.443 113.135,273.897 114.318 C 273.350 115.502,271.790 119.063,270.430 122.231 C 269.070 125.400,267.380 129.238,266.674 130.762 C 264.891 134.611,264.162 136.243,262.698 139.664 C 261.999 141.296,261.274 142.824,261.085 143.061 C 260.897 143.297,260.484 144.223,260.169 145.117 C 259.853 146.012,258.982 148.044,258.233 149.633 C 255.338 155.775,254.285 158.111,253.811 159.446 C 253.540 160.208,252.605 162.344,251.732 164.194 C 249.133 169.705,248.071 172.046,248.071 172.264 C 248.071 172.445,242.648 184.596,241.165 187.735 C 240.857 188.388,240.139 189.990,239.569 191.296 C 237.926 195.064,237.574 195.843,235.904 199.407 C 233.234 205.108,232.771 206.149,230.272 212.067 C 228.939 215.223,227.424 218.694,226.905 219.782 C 226.385 220.870,225.394 223.096,224.703 224.728 C 224.012 226.360,222.861 228.942,222.146 230.465 C 218.702 237.799,212.067 252.659,212.067 253.040 C 212.067 253.196,211.088 255.330,209.891 257.782 C 208.694 260.234,207.715 262.465,207.715 262.741 C 207.715 263.016,207.198 264.323,206.566 265.646 C 205.933 266.969,204.331 270.311,203.005 273.072 C 201.679 275.833,200.593 278.210,200.593 278.353 C 200.593 278.641,200.033 279.916,197.818 284.669 C 194.834 291.072,194.299 292.265,192.671 296.142 C 191.757 298.318,190.406 301.394,189.669 302.976 C 188.932 304.558,188.328 305.933,188.328 306.031 C 188.328 306.130,187.901 307.149,187.378 308.298 C 186.855 309.446,185.848 311.721,185.139 313.353 C 184.430 314.985,183.186 317.745,182.375 319.486 C 178.418 327.980,177.280 330.486,174.473 336.894 C 173.329 339.505,171.682 343.244,170.814 345.203 C 169.945 347.161,169.006 349.298,168.726 349.951 C 167.334 353.205,164.766 358.956,163.604 361.424 C 160.251 368.547,159.446 370.326,159.444 370.612 C 159.442 370.781,159.167 371.445,158.833 372.086 C 157.683 374.291,152.419 386.352,151.526 388.829 C 150.663 391.220,150.657 391.337,151.341 392.094 C 152.045 392.872,393.466 393.399,396.340 392.629 L 397.230 392.390 397.230 196.195 L 397.230 0.000 361.029 0.000 C 335.002 0.000,324.827 0.122,324.827 0.434 " stroke="none" fill="#096693" fill-rule="evenodd"></path><path id="path1" d="M0.000 197.824 L 0.000 395.648 200.000 395.648 L 400.000 395.648 400.000 197.824 L 400.000 0.000 398.615 0.000 L 397.230 0.000 397.230 196.195 L 397.230 392.390 396.340 392.629 C 393.466 393.399,152.045 392.872,151.341 392.094 C 150.657 391.337,150.663 391.220,151.526 388.829 C 152.419 386.352,157.683 374.291,158.833 372.086 C 159.167 371.445,159.442 370.781,159.444 370.612 C 159.446 370.326,160.251 368.547,163.604 361.424 C 164.766 358.956,167.334 353.205,168.726 349.951 C 169.006 349.298,169.945 347.161,170.814 345.203 C 171.682 343.244,173.329 339.505,174.473 336.894 C 177.280 330.486,178.418 327.980,182.375 319.486 C 183.186 317.745,184.430 314.985,185.139 313.353 C 185.848 311.721,186.855 309.446,187.378 308.298 C 187.901 307.149,188.328 306.130,188.328 306.031 C 188.328 305.933,188.932 304.558,189.669 302.976 C 190.406 301.394,191.757 298.318,192.671 296.142 C 194.299 292.265,194.834 291.072,197.818 284.669 C 200.033 279.916,200.593 278.641,200.593 278.353 C 200.593 278.210,201.679 275.833,203.005 273.072 C 204.331 270.311,205.933 266.969,206.566 265.646 C 207.198 264.323,207.715 263.016,207.715 262.741 C 207.715 262.465,208.694 260.234,209.891 257.782 C 211.088 255.330,212.067 253.196,212.067 253.040 C 212.067 252.659,218.702 237.799,222.146 230.465 C 222.861 228.942,224.012 226.360,224.703 224.728 C 225.394 223.096,226.385 220.870,226.905 219.782 C 227.424 218.694,228.939 215.223,230.272 212.067 C 232.771 206.149,233.234 205.108,235.904 199.407 C 237.574 195.843,237.926 195.064,239.569 191.296 C 240.139 189.990,240.857 188.388,241.165 187.735 C 242.648 184.596,248.071 172.445,248.071 172.264 C 248.071 172.046,249.133 169.705,251.732 164.194 C 252.605 162.344,253.540 160.208,253.811 159.446 C 254.285 158.111,255.338 155.775,258.233 149.633 C 258.982 148.044,259.853 146.012,260.169 145.117 C 260.484 144.223,260.897 143.297,261.085 143.061 C 261.274 142.824,261.999 141.296,262.698 139.664 C 264.162 136.243,264.891 134.611,266.674 130.762 C 267.380 129.238,269.070 125.400,270.430 122.231 C 271.790 119.063,273.350 115.502,273.897 114.318 C 274.443 113.135,275.389 111.009,275.999 109.594 C 276.609 108.180,277.430 106.598,277.822 106.079 C 278.215 105.560,278.536 104.928,278.536 104.675 C 278.536 104.292,280.008 100.858,284.651 90.406 C 284.941 89.753,286.110 87.082,287.250 84.471 C 288.389 81.860,290.545 77.087,292.040 73.866 C 293.535 70.645,294.758 67.791,294.758 67.525 C 294.758 67.259,294.999 66.689,295.293 66.260 C 295.588 65.831,296.492 63.966,297.302 62.117 C 298.112 60.267,299.022 58.220,299.325 57.567 C 299.628 56.914,300.438 55.045,301.123 53.412 C 301.809 51.780,302.502 50.267,302.662 50.049 C 302.896 49.732,305.768 43.255,307.399 39.367 C 307.581 38.932,308.799 36.261,310.104 33.432 C 313.971 25.053,314.936 22.877,314.936 22.535 C 314.936 22.241,316.011 19.873,319.916 11.572 C 320.659 9.993,321.266 8.587,321.266 8.446 C 321.266 8.305,322.067 6.542,323.046 4.529 C 324.026 2.516,324.827 0.673,324.827 0.434 C 324.827 0.131,321.921 0.000,315.178 0.000 L 305.528 0.000 305.276 1.484 C 305.040 2.869,302.878 8.148,300.293 13.650 C 299.679 14.955,298.530 17.537,297.739 19.387 C 296.254 22.858,295.921 23.592,293.252 29.278 C 292.384 31.128,291.542 33.086,291.381 33.630 C 291.220 34.174,290.134 36.633,288.967 39.093 C 287.800 41.554,286.845 43.679,286.845 43.815 C 286.845 43.951,286.507 44.787,286.093 45.671 C 285.680 46.556,284.847 48.437,284.242 49.852 C 283.638 51.266,282.908 52.704,282.620 53.048 C 282.332 53.392,282.097 53.812,282.097 53.982 C 282.097 54.312,276.788 66.579,276.125 67.779 C 275.908 68.173,275.012 70.127,274.134 72.121 C 273.257 74.114,272.119 76.641,271.606 77.734 C 271.092 78.828,269.398 82.661,267.840 86.251 C 266.283 89.842,264.064 94.827,262.909 97.329 C 261.754 99.832,259.884 104.016,258.753 106.627 C 257.622 109.238,256.199 112.443,255.590 113.749 C 253.712 117.779,252.589 120.281,250.261 125.618 C 249.028 128.447,247.295 132.364,246.410 134.322 C 245.526 136.281,244.489 138.595,244.107 139.466 C 243.313 141.273,241.786 144.643,240.387 147.676 C 239.860 148.818,238.644 151.533,237.685 153.709 C 234.502 160.936,223.470 185.725,222.543 187.735 C 222.041 188.823,220.903 191.274,220.014 193.183 C 219.125 195.091,218.398 196.737,218.398 196.841 C 218.398 196.945,217.881 198.144,217.249 199.504 C 216.617 200.865,215.525 203.314,214.823 204.946 C 214.121 206.578,212.590 209.922,211.422 212.378 C 210.254 214.834,209.298 216.941,209.298 217.060 C 209.298 217.457,206.879 222.896,204.515 227.814 C 203.229 230.491,202.176 232.839,202.176 233.033 C 202.176 233.227,201.464 234.898,200.593 236.748 C 199.723 238.597,199.011 240.228,199.011 240.371 C 199.011 240.515,198.104 242.529,196.995 244.846 C 195.886 247.164,193.860 251.642,192.492 254.797 C 191.124 257.953,189.205 262.226,188.228 264.293 C 187.250 266.360,185.867 269.476,185.154 271.217 C 184.440 272.957,183.708 274.575,183.526 274.812 C 183.344 275.048,182.945 275.938,182.638 276.790 C 182.332 277.641,181.439 279.698,180.655 281.359 C 179.870 283.020,179.228 284.471,179.228 284.583 C 179.228 284.695,178.160 287.034,176.855 289.780 C 175.549 292.526,174.481 294.886,174.481 295.024 C 174.481 295.162,174.016 296.271,173.448 297.489 C 172.880 298.707,172.143 300.326,171.810 301.088 C 171.476 301.850,170.627 303.719,169.923 305.242 C 167.543 310.388,164.194 317.983,164.194 318.234 C 164.194 318.371,163.378 320.222,162.380 322.347 C 160.387 326.592,160.314 326.752,157.634 332.740 C 156.612 335.025,155.199 338.140,154.494 339.664 C 152.600 343.757,151.786 345.588,150.007 349.753 C 149.125 351.820,147.861 354.627,147.198 355.990 C 146.536 357.354,145.994 358.625,145.994 358.816 C 145.994 359.006,145.394 360.383,144.661 361.875 C 143.927 363.368,143.199 365.003,143.042 365.509 C 142.885 366.015,142.173 367.617,141.459 369.070 C 140.745 370.523,139.590 373.046,138.893 374.679 C 138.195 376.311,137.032 378.892,136.307 380.415 C 135.582 381.939,134.433 384.520,133.753 386.152 C 131.733 391.002,131.251 391.775,129.889 392.345 C 127.662 393.275,4.082 393.121,2.202 392.186 L 0.811 391.494 0.801 196.340 C 0.795 66.495,0.924 1.187,1.187 1.187 C 1.405 1.187,1.583 0.920,1.583 0.593 C 1.583 0.264,1.231 0.000,0.791 0.000 C 0.001 0.000,0.000 0.264,0.000 197.824 " stroke="none" fill="#fff" fill-rule="evenodd"></path><path id="path2" d="M1.583 0.593 C 1.583 0.920,1.405 1.187,1.187 1.187 C 0.924 1.187,0.795 66.495,0.801 196.340 L 0.811 391.494 2.202 392.186 C 4.082 393.121,127.662 393.275,129.889 392.345 C 131.251 391.775,131.733 391.002,133.753 386.152 C 134.433 384.520,135.582 381.939,136.307 380.415 C 137.032 378.892,138.195 376.311,138.893 374.679 C 139.590 373.046,140.745 370.523,141.459 369.070 C 142.173 367.617,142.885 366.015,143.042 365.509 C 143.199 365.003,143.927 363.368,144.661 361.875 C 145.394 360.383,145.994 359.006,145.994 358.816 C 145.994 358.625,146.536 357.354,147.198 355.990 C 147.861 354.627,149.125 351.820,150.007 349.753 C 151.786 345.588,152.600 343.757,154.494 339.664 C 155.199 338.140,156.612 335.025,157.634 332.740 C 160.314 326.752,160.387 326.592,162.380 322.347 C 163.378 320.222,164.194 318.371,164.194 318.234 C 164.194 317.983,167.543 310.388,169.923 305.242 C 170.627 303.719,171.476 301.850,171.810 301.088 C 172.143 300.326,172.880 298.707,173.448 297.489 C 174.016 296.271,174.481 295.162,174.481 295.024 C 174.481 294.886,175.549 292.526,176.855 289.780 C 178.160 287.034,179.228 284.695,179.228 284.583 C 179.228 284.471,179.870 283.020,180.655 281.359 C 181.439 279.698,182.332 277.641,182.638 276.790 C 182.945 275.938,183.344 275.048,183.526 274.812 C 183.708 274.575,184.440 272.957,185.154 271.217 C 185.867 269.476,187.250 266.360,188.228 264.293 C 189.205 262.226,191.124 257.953,192.492 254.797 C 193.860 251.642,195.886 247.164,196.995 244.846 C 198.104 242.529,199.011 240.515,199.011 240.371 C 199.011 240.228,199.723 238.597,200.593 236.748 C 201.464 234.898,202.176 233.227,202.176 233.033 C 202.176 232.839,203.229 230.491,204.515 227.814 C 206.879 222.896,209.298 217.457,209.298 217.060 C 209.298 216.941,210.254 214.834,211.422 212.378 C 212.590 209.922,214.121 206.578,214.823 204.946 C 215.525 203.314,216.617 200.865,217.249 199.504 C 217.881 198.144,218.398 196.945,218.398 196.841 C 218.398 196.737,219.125 195.091,220.014 193.183 C 220.903 191.274,222.041 188.823,222.543 187.735 C 223.470 185.725,234.502 160.936,237.685 153.709 C 238.644 151.533,239.860 148.818,240.387 147.676 C 241.786 144.643,243.313 141.273,244.107 139.466 C 244.489 138.595,245.526 136.281,246.410 134.322 C 247.295 132.364,249.028 128.447,250.261 125.618 C 252.589 120.281,253.712 117.779,255.590 113.749 C 256.199 112.443,257.622 109.238,258.753 106.627 C 259.884 104.016,261.754 99.832,262.909 97.329 C 264.064 94.827,266.283 89.842,267.840 86.251 C 269.398 82.661,271.092 78.828,271.606 77.734 C 272.119 76.641,273.257 74.114,274.134 72.121 C 275.012 70.127,275.908 68.173,276.125 67.779 C 276.788 66.579,282.097 54.312,282.097 53.982 C 282.097 53.812,282.332 53.392,282.620 53.048 C 282.908 52.704,283.638 51.266,284.242 49.852 C 284.847 48.437,285.680 46.556,286.093 45.671 C 286.507 44.787,286.845 43.951,286.845 43.815 C 286.845 43.679,287.800 41.554,288.967 39.093 C 290.134 36.633,291.220 34.174,291.381 33.630 C 291.542 33.086,292.384 31.128,293.252 29.278 C 295.921 23.592,296.254 22.858,297.739 19.387 C 298.530 17.537,299.679 14.955,300.293 13.650 C 302.878 8.148,305.040 2.869,305.276 1.484 L 305.528 -0.000 153.555 -0.000 C 18.732 -0.000,1.583 0.067,1.583 0.593 " stroke="none" fill="#DA241C" fill-rule="evenodd"></path></g></svg>